<svg xmlns="http://www.w3.org/2000/svg" viewBox="0 0 1108.4 567.4"><defs><style>.cls-1,.cls-2,.cls-3,.cls-4,.cls-5{fill:none;stroke:#fff;stroke-linecap:round;}.cls-1{stroke-linejoin:round;}.cls-1,.cls-3{stroke-width:16px;}.cls-2,.cls-3,.cls-4,.cls-5{stroke-miterlimit:10;}.cls-2{stroke-width:15.35px;}.cls-4{stroke-width:15.26px;}.cls-5{stroke-width:15.93px;}</style></defs><title>Asset 7</title><g id="Layer_2" data-name="Layer 2"><g id="Layer_1-2" data-name="Layer 1"><ellipse class="cls-1" cx="281.45" cy="122.46" rx="23.26" ry="24.48"/><ellipse class="cls-1" cx="349.81" cy="32.48" rx="23.26" ry="24.48"/><ellipse class="cls-1" cx="428.75" cy="153.42" rx="23.26" ry="24.48"/><ellipse class="cls-1" cx="482.31" cy="81.43" rx="23.26" ry="24.48"/><ellipse class="cls-1" cx="559.84" cy="177.9" rx="23.26" ry="24.48"/><path class="cls-1" d="M348.7,362.22l-69.15-99.4-.21-.29c.52-28.13,2.11-114.87,2.11-114.87"/><line class="cls-1" x1="351.93" y1="262.84" x2="428.04" y2="177.9"/><line class="cls-1" x1="481.61" y1="105.91" x2="481.61" y2="274.36"/><polyline class="cls-1" points="483.02 350.67 559.13 324.75 559.13 202.37"/><line class="cls-1" x1="481.61" y1="274.36" x2="483.02" y2="350.67"/><line class="cls-1" x1="405.49" y1="379.47" x2="405.49" y2="311.8"/><ellipse class="cls-1" cx="406.2" cy="287.32" rx="23.26" ry="24.48"/><ellipse class="cls-1" cx="631.72" cy="255.64" rx="23.26" ry="24.48"/><ellipse class="cls-1" cx="227.18" cy="287.32" rx="23.26" ry="24.48"/><line class="cls-1" x1="631.02" y1="280.12" x2="559.2" y2="324.72"/><line class="cls-1" x1="226.48" y1="311.8" x2="329.2" y2="336.72"/><path class="cls-2" d="M428,395.3c-1.41,29.15,1.41,58.29,1.17,87.92"/><path class="cls-3" d="M457.64,375.15c0,29.64,2.82,59.28,2,89.26"/><path class="cls-4" d="M399.85,461.22V379.47"/><path class="cls-5" d="M972.13,559.44c-38.74-18.72-76.09-38.87-113.44-63.35-4.15-2.88-6.92-2.88-11.07-5.76-23.52-15.84-44.27-31.68-67.79-48.95-31.82-25.92-59.49-53.28-95.45-70.55-15.22-7.2-33.21-8.64-49.81-7.2-20.75,2.88-40.12,13-58.1,24.47C525.28,421.22,481,454.34,433.7,490.83"/><path class="cls-3" d="M734.7,401.7c34.57-19,68-40,102-60.26,16.19-9.66,32.6-18.43,51.47-18.19,11.25.14,21.34,3.66,31.39,9.06,24.65,13.22,47.43,31.05,70,48q51.57,38.73,101.79,79.58l9.11,7.41"/><path class="cls-3" d="M8,506.72c22.1-13.81,57.66-36.25,101.14-64.85,84-55.23,97.66-67.74,126-68.16,10.7-.16,33.62,1.25,127.75,66.5,41.59,28.83,74.68,54.59,97.59,73.16"/><line class="cls-1" x1="350.2" y1="56.72" x2="349.2" y2="361.72"/><line class="cls-3" x1="400.2" y1="379.72" x2="349.2" y2="361.72"/><line class="cls-1" x1="483.2" y1="350.72" x2="428.2" y2="395.72"/><line class="cls-3" x1="405.2" y1="379.72" x2="428.2" y2="395.72"/></g></g></svg>