<svg viewBox="0 0 616 616" xmlns="http://www.w3.org/2000/svg"><g fill="none" stroke="#fff" stroke-linecap="round" stroke-width="16"><g stroke-linejoin="round"><circle cx="308" cy="308" r="300"/><ellipse cx="206.75" cy="169.24" rx="23.26" ry="24.48"/><ellipse cx="275.12" cy="79.26" rx="23.26" ry="24.48"/><ellipse cx="354.05" cy="200.2" rx="23.26" ry="24.48"/><ellipse cx="407.61" cy="128.21" rx="23.26" ry="24.48"/><ellipse cx="485.14" cy="224.68" rx="23.26" ry="24.48"/><path d="m274 409-69.15-99.4-.2-.29c.51-28.13 2.1-114.87 2.1-114.87"/><path d="m277.23 309.62 76.12-84.94"/><path d="m406.91 152.69v168.45"/><path d="m408.32 397.45 76.11-25.92v-122.38"/><path d="m406.91 321.14 1.41 76.31"/><path d="m330.79 426.25v-67.67"/><ellipse cx="331.5" cy="334.1" rx="23.26" ry="24.48"/><ellipse cx="557.02" cy="302.42" rx="23.26" ry="24.48"/><ellipse cx="152.49" cy="334.1" rx="23.26" ry="24.48"/><path d="m556.32 326.9-71.82 44.6"/><path d="m151.78 358.58 102.72 24.92"/></g><path d="m353.35 442.08c-1.41 27.82 1.41 55.64 1.17 83.92" stroke-miterlimit="10"/><path d="m383 421.93c0 29.64 2.82 59.28 2 89.26" stroke-miterlimit="10"/><path d="m325.16 507v-80.75" stroke-miterlimit="10"/><path d="m586 412.1a92.75 92.75 0 0 0 -47.92 1.9c-15.9 5.05-30.31 13.63-44.23 22.7-28.77 18.74-56.82 38.58-84.4 59.07-15.6 11.59-31.05 23.38-46.45 35.23" stroke-miterlimit="10"/><path d="m63 473.7c19.57-13.7 39.21-26.7 60.81-40.7a83.36 83.36 0 0 1 39.28-13 84.46 84.46 0 0 1 15.71 2c5.9 2 10.81 4 15.72 6 69.71 36 130.59 84 191.25 132.15" stroke-miterlimit="10"/><path d="m275.5 103.5-1 305" stroke-linejoin="round"/><path d="m325.5 426.5-51-18" stroke-miterlimit="10"/><path d="m408.5 397.5-55 45" stroke-linejoin="round"/><path d="m330.5 426.5 23 16" stroke-miterlimit="10"/></g></svg>