<svg xmlns="http://www.w3.org/2000/svg" viewBox="0 0 616 616"><defs><style>.cls-1,.cls-2{fill:none;stroke:#fff;stroke-linecap:round;stroke-width:16px;}.cls-1{stroke-linejoin:round;}.cls-2{stroke-miterlimit:10;}</style></defs><title>Asset 6</title><g id="Layer_2" data-name="Layer 2"><g id="Layer_1-2" data-name="Layer 1"><circle class="cls-1" cx="308" cy="308" r="300"/><ellipse class="cls-1" cx="206.75" cy="169.24" rx="23.26" ry="24.48"/><ellipse class="cls-1" cx="275.12" cy="79.26" rx="23.26" ry="24.48"/><ellipse class="cls-1" cx="354.05" cy="200.2" rx="23.26" ry="24.48"/><ellipse class="cls-1" cx="407.61" cy="128.21" rx="23.26" ry="24.48"/><ellipse class="cls-1" cx="485.14" cy="224.68" rx="23.26" ry="24.48"/><path class="cls-1" d="M274,409l-69.15-99.4-.2-.29c.51-28.13,2.1-114.87,2.1-114.87"/><line class="cls-1" x1="277.23" y1="309.62" x2="353.35" y2="224.68"/><line class="cls-1" x1="406.91" y1="152.69" x2="406.91" y2="321.14"/><polyline class="cls-1" points="408.32 397.45 484.43 371.53 484.43 249.15"/><line class="cls-1" x1="406.91" y1="321.14" x2="408.32" y2="397.45"/><line class="cls-1" x1="330.79" y1="426.25" x2="330.79" y2="358.58"/><ellipse class="cls-1" cx="331.5" cy="334.1" rx="23.26" ry="24.48"/><ellipse class="cls-1" cx="557.02" cy="302.42" rx="23.26" ry="24.48"/><ellipse class="cls-1" cx="152.49" cy="334.1" rx="23.26" ry="24.48"/><line class="cls-1" x1="556.32" y1="326.9" x2="484.5" y2="371.5"/><line class="cls-1" x1="151.78" y1="358.58" x2="254.5" y2="383.5"/><path class="cls-2" d="M353.35,442.08c-1.41,27.82,1.41,55.64,1.17,83.92"/><path class="cls-2" d="M383,421.93c0,29.64,2.82,59.28,2,89.26"/><path class="cls-2" d="M325.16,507V426.25"/><path class="cls-2" d="M586,412.1A92.75,92.75,0,0,0,538.08,414c-15.9,5.05-30.31,13.63-44.23,22.7-28.77,18.74-56.82,38.58-84.4,59.07C393.85,507.36,378.4,519.15,363,531"/><path class="cls-2" d="M63,473.7C82.57,460,102.21,447,123.81,433a83.36,83.36,0,0,1,39.28-13,84.46,84.46,0,0,1,15.71,2c5.9,2,10.81,4,15.72,6,69.71,36,130.59,84,191.25,132.15"/><line class="cls-1" x1="275.5" y1="103.5" x2="274.5" y2="408.5"/><line class="cls-2" x1="325.5" y1="426.5" x2="274.5" y2="408.5"/><line class="cls-1" x1="408.5" y1="397.5" x2="353.5" y2="442.5"/><line class="cls-2" x1="330.5" y1="426.5" x2="353.5" y2="442.5"/></g></g></svg>